<svg viewBox="0 0 24 24" xmlns="http://www.w3.org/2000/svg">
  <path
    fillRule="evenodd"
    clipRule="evenodd"
    d="M12.0486 0C5.53847 0 0.097166 5.5 0 12.3C0 15.9 1.4575 19.1 3.78948 21.4C4.66398 22.2 5.92713 22.3 6.89879 21.6C8.25912 20.5 10.0081 19.9 12.0486 19.9C14.0891 19.9 15.8381 20.6 17.1984 21.6C18.17 22.3 19.4332 22.3 20.3077 21.4C22.6397 19.1 24 16 24 12.4C23.9028 5.5 18.6559 0 12.0486 0ZM11.9514 18.5C8.35628 18.5 5.92713 15.7 5.92713 12.3C5.92713 8.9 8.35628 6.1 11.9514 6.1C15.5466 6.1 17.9757 8.9 17.9757 12.3C17.9757 15.8 15.5466 18.5 11.9514 18.5Z"
    fill="#62D84E"
  />
</svg>
