<svg width="275" height="275" viewBox="0 0 275 275" fill="none" xmlns="http://www.w3.org/2000/svg">
<rect width="275" height="275" fill="#032D42"/>
<path fill-rule="evenodd" clip-rule="evenodd" d="M82.3 132.2C80 132.2 78 133 76.3 134.3V132.4H70.9V153.5H76.5V140C77.3 138.9 79.2 137.4 81.6 137.4C82.5 137.4 83.2 137.5 83.9 137.7V132.3C83.4 132.2 82.8 132.2 82.3 132.2Z" fill="white"/>
<path fill-rule="evenodd" clip-rule="evenodd" d="M33 147.1C34.4 148.4 36.6 149.2 38.8 149.2C40.3 149.2 41.5 148.5 41.5 147.4C41.5 144.2 31.3 145.4 31.3 138.5C31.3 134.4 35.2 131.9 39.4 131.9C42.1 131.9 45.1 132.9 46.5 134L43.9 138.1C42.8 137.3 41.4 136.7 39.9 136.7C38.3 136.7 37 137.3 37 138.4C37 141.1 47.2001 140.1 47.2001 147.4C47.2001 151.5 43.2 153.9 38.8 153.9C35.9 153.9 32.8 152.9 30.3 151.1L33 147.1Z" fill="white"/>
<path fill-rule="evenodd" clip-rule="evenodd" d="M68.5 142.8C68.5 136.9 64.4 132 58.6 132C52.3 132 48.3 137.1 48.3 143C48.3 149.6 53 154 59.3 154C62.6 154 65.9001 152.6 67.9001 150.2L64.7001 147C63.7001 148.1 61.8001 149.4 59.4001 149.4C56.4001 149.4 54.0001 147.4 53.7001 144.4H68.3C68.4 143.9 68.5 143.4 68.5 142.8ZM54 140.3C54.3 138.4 56.2 136.6 58.5 136.6C60.8 136.6 62.5001 138.4 62.7001 140.3H54Z" fill="white"/>
<path fill-rule="evenodd" clip-rule="evenodd" d="M97.4001 145.3L103.1 132.4H109L99.3001 153.6H95.4001L85.7001 132.4H91.6001L97.4001 145.3Z" fill="white"/>
<path fill-rule="evenodd" clip-rule="evenodd" d="M113.8 122.5C115.8 122.5 117.5 124.1 117.5 126.1C117.5 128.1 115.8 129.7 113.8 129.7C111.8 129.7 110.1 128.1 110.1 126.1C110.1 124.1 111.7 122.5 113.8 122.5Z" fill="white"/>
<path d="M116.5 132.4H110.9V153.5H116.5V132.4Z" fill="white"/>
<path fill-rule="evenodd" clip-rule="evenodd" d="M139.9 149.2C137.4 152.5 134.3 154 130.3 154C123.8 154 119 149.1 119 143C119 136.9 123.9 132 130.3 132C133.9 132 137.2 133.7 139.2 136.2L135.2 139.7C134.1 138.2 132.4 137.2 130.3 137.2C127 137.2 124.6 139.8 124.6 143C124.6 146.3 127 148.8 130.4 148.8C132.7 148.8 134.5 147.4 135.4 146L139.9 149.2Z" fill="white"/>
<path fill-rule="evenodd" clip-rule="evenodd" d="M160.4 150.2C158.4 152.6 155 154 151.8 154C145.5 154 140.8 149.6 140.8 143C140.8 137.1 144.8 132 151.1 132C156.9 132 161 136.9 161 142.8C161 143.4 161 143.9 160.9 144.4H146.3C146.6 147.4 149 149.4 152 149.4C154.4 149.4 156.3 148 157.3 147L160.4 150.2ZM155.2 140.3C155 138.4 153.3 136.6 151 136.6C148.7 136.6 146.7 138.4 146.5 140.3H155.2Z" fill="white"/>
<path fill-rule="evenodd" clip-rule="evenodd" d="M163.2 153.6V132.4H168.6V134.1C170.2 132.8 172.2 132 174.6 132C177.5 132 180.2 133.3 181.9 135.4C183.3 137.1 184.1 139.2 184.1 142.8V153.6H178.5V142.4C178.5 140.3 178 139.2 177.2 138.4C176.5 137.7 175.3 137.2 174 137.2C171.6 137.2 169.7 138.7 168.9 139.8V153.5H163.2V153.6Z" fill="white"/>
<path fill-rule="evenodd" clip-rule="evenodd" d="M198.6 132C191.9 132 186.3 137.5 186.2 144.3C186.2 147.9 187.7 151.1 190.1 153.4C191 154.2 192.3 154.3 193.3 153.6C194.7 152.5 196.5 151.9 198.6 151.9C200.7 151.9 202.5 152.6 203.9 153.6C204.9 154.3 206.2 154.3 207.1 153.4C209.5 151.1 210.9 148 210.9 144.4C210.8 137.5 205.4 132 198.6 132ZM198.5 150.5C194.8 150.5 192.3 147.7 192.3 144.3C192.3 140.9 194.8 138.1 198.5 138.1C202.2 138.1 204.7 140.9 204.7 144.3C204.7 147.8 202.2 150.5 198.5 150.5Z" fill="#62D84E"/>
<path fill-rule="evenodd" clip-rule="evenodd" d="M222 153.6H217.8L209.4 132.4H215.1L219.7 144.5L224.2 132.4H228.9L233.4 144.5L238 132.4H243.6L235.2 153.6H231L226.5 141.5L222 153.6Z" fill="white"/>
<path d="M243.7 151.2H243.2V152.1H242.8V149.6H243.8C244.2 149.6 244.6 150 244.6 150.4C244.6 150.7 244.4 151 244.1 151.1L244.7 152.1H244.3L243.7 151.2ZM243.2 150.8H243.8C244 150.8 244.2 150.6 244.2 150.4C244.2 150.2 244 150 243.8 150H243.2V150.8Z" fill="white"/>
<path d="M243.6 148.6C244.9 148.6 245.9 149.6 245.9 150.9C245.9 152.2 244.9 153.2 243.6 153.2C242.3 153.2 241.3 152.2 241.3 150.9C241.3 149.6 242.4 148.6 243.6 148.6ZM243.6 148.3C242.1 148.3 241 149.5 241 150.9C241 152.4 242.2 153.5 243.6 153.5C245.1 153.5 246.2 152.3 246.2 150.9C246.3 149.4 245.1 148.3 243.6 148.3Z" fill="white"/>
</svg>
